<?xml version="1.0" standalone="no"?>
<!DOCTYPE svg PUBLIC "-//W3C//DTD SVG 20010904//EN"
 "http://www.w3.org/TR/2001/REC-SVG-20010904/DTD/svg10.dtd">
<svg version="1.0" xmlns="http://www.w3.org/2000/svg"
 width="300.000000pt" height="302.000000pt" viewBox="0 0 300.000000 302.000000"
 preserveAspectRatio="xMidYMid meet">
<metadata>
Created by potrace 1.10, written by Peter Selinger 2001-2011
</metadata>
<g transform="translate(0.000000,302.000000) scale(0.100000,-0.100000)"
fill="#000000" stroke="none">
<path d="M1085 2903 c-108 -26 -250 -148 -350 -298 -29 -44 -92 -158 -140
-253 -97 -194 -139 -260 -241 -382 -220 -263 -290 -470 -238 -697 40 -175 187
-392 348 -510 77 -57 121 -76 305 -129 253 -73 320 -111 530 -300 58 -52 129
-105 165 -123 163 -83 368 -33 526 129 85 87 125 162 150 286 32 158 96 232
285 334 129 69 185 109 267 191 116 114 156 217 145 374 -7 106 -28 160 -130
344 -102 182 -119 231 -146 411 -12 74 -25 150 -30 168 -25 83 -106 179 -190
222 -68 34 -148 48 -314 54 -180 7 -212 13 -462 98 -99 33 -205 66 -235 74
-53 13 -203 17 -245 7z m460 -116 c267 -87 303 -95 485 -101 161 -6 220 -15
281 -45 137 -65 185 -154 219 -401 20 -151 47 -219 174 -445 69 -123 96 -207
98 -303 1 -100 -20 -172 -72 -246 -77 -110 -149 -165 -390 -296 -79 -43 -165
-129 -194 -192 -13 -29 -33 -93 -45 -143 -22 -90 -44 -144 -78 -186 -48 -59
-101 -112 -133 -132 -19 -11 -37 -24 -40 -27 -10 -12 -99 -49 -145 -61 -86
-22 -203 7 -289 71 -50 37 -65 50 -156 135 -111 103 -243 181 -375 219 -33 10
-79 24 -103 32 -23 8 -51 14 -62 14 -10 0 -22 5 -25 10 -3 6 -16 10 -27 10
-11 0 -53 16 -92 36 -121 61 -211 146 -302 282 -100 151 -134 250 -134 396 0
106 30 215 81 299 16 26 29 49 29 52 0 10 106 153 161 217 78 91 118 155 212
343 106 212 173 314 269 408 172 171 271 179 653 54z"/>
<path d="M1370 2463 c-81 -29 -142 -106 -260 -328 -9 -16 -32 -59 -52 -95 -20
-36 -58 -105 -85 -155 -27 -49 -61 -110 -75 -135 -14 -25 -47 -85 -74 -135
-27 -49 -59 -108 -71 -130 -72 -126 -78 -146 -78 -240 0 -80 3 -95 27 -136 35
-60 94 -112 151 -134 67 -25 170 -17 231 19 65 38 82 61 189 256 17 30 48 87
70 125 22 39 58 104 80 145 22 41 42 77 44 80 9 10 43 -45 168 -272 71 -128
144 -250 164 -271 101 -108 275 -114 375 -13 64 64 81 107 81 206 0 99 6 85
-145 355 -15 28 -50 91 -77 140 -28 50 -71 127 -96 172 -26 45 -47 85 -47 88
0 3 -11 22 -23 43 -13 20 -58 101 -100 180 -48 89 -90 155 -114 177 -74 68
-187 91 -283 58z m215 -52 c48 -27 64 -46 127 -146 27 -43 104 -177 151 -265
17 -30 49 -89 72 -130 23 -41 56 -100 72 -130 17 -30 71 -127 120 -215 99
-178 113 -210 113 -267 0 -82 -20 -130 -80 -189 -48 -49 -64 -58 -112 -68 -89
-19 -173 5 -229 66 -27 28 -320 548 -333 589 -4 14 -2 23 7 27 8 3 30 34 50
69 19 35 47 85 62 111 97 175 125 241 125 291 0 79 -16 88 -22 13 -6 -67 -25
-108 -165 -355 -29 -52 -53 -96 -53 -98 0 -2 -38 -70 -83 -152 -46 -81 -121
-216 -167 -301 -46 -84 -96 -169 -113 -188 -110 -126 -310 -99 -394 52 -23 42
-27 62 -27 125 l0 75 95 175 c130 237 297 540 345 625 22 39 53 96 69 128 66
131 144 187 255 187 53 0 74 -5 115 -29z"/>
</g>
</svg>
